<?xml version="1.0" standalone="no"?>
<!DOCTYPE svg PUBLIC "-//W3C//DTD SVG 20010904//EN"
 "http://www.w3.org/TR/2001/REC-SVG-20010904/DTD/svg10.dtd">
<svg version="1.0" xmlns="http://www.w3.org/2000/svg"
 width="1080.000000pt" height="1080.000000pt" viewBox="0 0 1080.000000 1080.000000"
 preserveAspectRatio="xMidYMid meet">
<metadata>
Created by potrace 1.14, written by Peter Selinger 2001-2017
</metadata>
<g transform="translate(0.000000,1080.000000) scale(0.100000,-0.100000)"
fill="#000000" stroke="none">
<path d="M4875 10416 c-161 -13 -401 -44 -510 -66 -27 -6 -75 -15 -105 -21
-80 -16 -181 -39 -215 -50 -16 -5 -70 -20 -120 -34 -49 -14 -137 -41 -195 -59
-58 -18 -125 -39 -150 -47 -40 -12 -265 -96 -315 -118 -11 -5 -42 -19 -68 -30
-26 -12 -67 -29 -90 -38 -124 -49 -421 -212 -572 -315 -125 -84 -376 -268
-510 -373 -170 -132 -411 -387 -608 -644 -69 -90 -184 -256 -212 -309 -11 -20
-47 -82 -80 -137 -32 -55 -73 -133 -91 -173 -17 -40 -35 -76 -38 -79 -3 -4 -6
-16 -6 -27 1 -18 3 -16 17 9 9 17 27 44 40 61 12 17 23 35 23 40 0 5 32 56 71
114 38 58 91 137 117 176 27 40 60 87 75 105 185 232 248 307 319 379 117 119
311 299 388 360 36 28 72 57 80 63 207 166 436 319 660 442 100 54 349 175
361 175 5 0 17 4 27 9 231 122 826 311 1162 370 63 11 153 27 200 35 222 39
665 58 1010 44 155 -6 550 -50 571 -64 4 -2 52 -13 108 -24 155 -30 247 -56
471 -130 137 -46 248 -88 317 -120 34 -16 65 -30 68 -30 5 0 178 -81 225 -105
255 -131 345 -180 420 -226 215 -135 361 -244 603 -451 123 -104 418 -393 472
-463 22 -27 48 -59 58 -70 11 -11 31 -36 45 -55 15 -19 29 -37 33 -40 7 -6
140 -184 189 -252 124 -173 173 -245 192 -282 11 -22 36 -65 55 -95 46 -72
246 -466 311 -611 137 -308 234 -655 302 -1080 5 -30 16 -98 25 -150 52 -326
60 -1008 16 -1325 -6 -38 -16 -108 -22 -155 -14 -103 -26 -159 -74 -360 -33
-137 -119 -421 -144 -475 -5 -11 -24 -58 -41 -105 -18 -47 -43 -109 -56 -138
-13 -29 -24 -55 -24 -58 0 -2 -34 -75 -76 -162 -123 -253 -301 -545 -438 -718
-189 -237 -259 -318 -386 -444 -244 -245 -331 -317 -632 -523 -85 -59 -244
-157 -253 -157 -2 0 -39 -21 -82 -47 -120 -71 -567 -285 -708 -338 -254 -97
-487 -156 -865 -221 -399 -68 -1007 -88 -1380 -45 -102 11 -207 25 -235 31
-27 5 -126 24 -220 41 -500 91 -909 255 -1550 623 -59 34 -227 147 -310 209
-69 50 -265 206 -275 217 -3 3 -27 24 -54 45 -270 218 -616 610 -807 915 -40
63 -78 122 -85 130 -7 8 -24 38 -40 65 -52 94 -63 114 -87 152 -25 40 -173
336 -194 388 -7 17 -21 50 -31 75 -29 69 -118 335 -143 425 -66 249 -70 262
-129 515 -21 91 -51 268 -60 360 -5 52 -14 129 -19 170 -6 41 -11 100 -11 130
-2 75 -14 41 -30 -80 -23 -176 12 -655 68 -930 19 -90 62 -276 77 -325 104
-357 156 -484 360 -890 125 -250 155 -296 435 -685 255 -355 772 -813 1217
-1080 97 -58 254 -140 303 -159 19 -8 64 -27 100 -43 121 -55 254 -106 465
-176 383 -128 677 -201 930 -232 50 -6 132 -18 183 -26 311 -49 976 -51 1322
-4 36 5 115 14 175 20 253 26 406 56 625 122 91 27 179 53 195 57 17 4 39 13
50 18 11 6 65 25 120 43 120 40 446 166 541 210 182 84 334 166 543 292 44 28
217 151 271 195 8 6 65 51 125 99 61 48 112 91 115 94 3 4 28 26 55 50 116 99
286 273 450 461 52 59 248 311 296 379 88 126 135 196 170 255 70 117 177 318
202 382 9 23 25 61 35 85 85 194 172 423 202 533 56 205 95 381 119 535 33
217 38 266 56 570 18 307 19 469 4 655 -13 171 -60 558 -73 610 -2 11 -12 56
-21 100 -43 209 -78 343 -122 475 -47 143 -134 368 -183 475 -10 22 -30 69
-45 105 -34 81 -157 320 -277 535 -41 74 -202 314 -252 375 -93 114 -144 176
-181 220 -22 26 -49 58 -59 71 -165 203 -409 440 -642 624 -60 48 -134 106
-164 130 -163 131 -356 265 -485 337 -382 213 -724 356 -1135 474 -47 14 -107
31 -135 39 -216 63 -476 117 -667 140 -73 8 -169 20 -213 26 -131 17 -648 20
-840 5z"/>
<path d="M971 7864 c0 -11 3 -14 6 -6 3 7 2 16 -1 19 -3 4 -6 -2 -5 -13z"/>
<path d="M5785 7165 c-38 -19 -77 -34 -85 -34 -22 -1 -448 -216 -542 -274 -43
-26 -80 -47 -83 -47 -3 0 -35 -19 -72 -43 -86 -55 -240 -132 -279 -141 -16 -4
-90 -2 -164 4 -181 14 -489 13 -581 -1 -81 -12 -137 -35 -122 -50 8 -8 110
-30 216 -46 41 -6 55 -19 39 -35 -17 -17 -218 15 -275 44 -10 5 -56 9 -102 9
-95 0 -140 -16 -156 -59 -25 -66 35 -102 268 -156 184 -43 295 -67 352 -75 58
-8 73 -31 42 -65 -14 -14 -21 -33 -19 -48 2 -19 15 -26 78 -45 41 -12 100 -22
130 -23 66 0 80 -8 94 -51 16 -46 37 -57 77 -38 30 14 39 14 123 -8 124 -32
386 -38 429 -10 43 28 37 70 -13 102 -41 26 -61 68 -41 88 8 8 153 7 543 -3
812 -21 1062 -23 1143 -8 89 16 242 16 370 1 122 -16 295 -20 313 -9 25 15 -8
34 -114 68 -129 41 -142 63 -66 106 36 20 256 246 316 324 49 64 67 100 55
114 -17 21 -173 39 -218 26 -35 -11 -115 -67 -246 -172 -232 -187 -256 -200
-377 -200 -196 1 -1078 79 -1308 116 -19 3 -61 8 -93 11 -98 9 -95 18 98 223
65 69 156 170 203 225 48 55 106 121 129 147 71 78 52 88 -62 33z"/>
<path d="M8978 5321 c-29 -28 -56 -51 -59 -51 -4 0 -25 7 -48 15 -52 18 -128
10 -196 -21 -74 -34 -152 -120 -215 -239 -86 -161 -102 -185 -153 -218 -40
-26 -71 -38 -132 -48 -68 -11 -84 -17 -105 -42 -183 -219 -246 -271 -455 -376
-188 -94 -238 -113 -259 -98 -10 7 -29 65 -50 147 -60 247 -136 436 -272 681
-71 130 -84 144 -116 136 -30 -8 -161 -136 -268 -261 -102 -120 -128 -146
-147 -146 -33 0 -185 142 -258 241 -79 107 -181 221 -222 247 -27 17 -69 33
-98 37 -27 4 -69 14 -92 22 -38 12 -46 12 -75 -3 -51 -26 -139 -97 -194 -155
-145 -154 -235 -240 -329 -314 -27 -21 -63 -51 -80 -66 -16 -15 -42 -32 -57
-38 -24 -9 -28 -7 -47 25 -19 32 -23 34 -75 34 -30 0 -77 -5 -105 -11 -42 -9
-51 -15 -60 -41 -6 -17 -11 -45 -11 -62 0 -27 -9 -38 -58 -74 -126 -91 -148
-102 -213 -102 -51 0 -66 -4 -91 -25 -16 -14 -36 -25 -43 -25 -24 0 -117 -68
-141 -104 -14 -20 -29 -36 -34 -36 -5 0 -22 -19 -38 -42 -44 -63 -393 -413
-419 -420 -28 -7 -42 9 -104 114 -131 225 -194 308 -313 406 -142 117 -232
231 -261 332 -4 14 -13 39 -20 55 -7 17 -29 76 -50 132 -20 56 -47 110 -58
122 -34 31 -105 46 -168 35 -47 -8 -57 -14 -87 -54 -19 -24 -52 -57 -73 -73
-38 -28 -40 -28 -106 -18 -36 6 -69 15 -73 21 -3 5 -21 21 -40 35 -27 20 -41
24 -70 19 -43 -8 -83 -28 -107 -53 -27 -28 -159 -131 -231 -180 -109 -74 -209
-167 -223 -208 -24 -74 1 -272 58 -448 47 -147 161 -393 236 -512 15 -24 27
-45 27 -49 0 -9 159 -272 199 -329 34 -48 100 -132 131 -165 8 -9 33 -40 55
-68 44 -58 410 -420 465 -461 19 -14 73 -58 120 -96 73 -60 339 -245 352 -245
3 0 42 -22 87 -49 97 -59 364 -191 517 -256 144 -62 312 -113 494 -150 68 -14
101 -21 250 -55 80 -19 321 -49 486 -61 173 -12 391 -3 654 27 174 20 402 66
439 88 5 4 76 20 158 36 135 27 357 93 443 133 19 9 94 41 165 72 112 49 170
78 350 174 130 70 375 242 531 373 260 218 277 234 379 339 92 95 239 273 339
410 98 134 346 578 396 709 7 19 28 68 47 108 18 40 33 78 33 85 0 7 4 17 9
22 8 9 65 180 90 270 30 108 61 329 63 446 3 123 2 126 -25 168 -16 24 -52 66
-80 95 -29 28 -77 79 -108 113 -77 85 -94 88 -161 24z"/>
</g>
</svg>
